<svg xmlns="http://www.w3.org/2000/svg" viewBox="0 0 12.467 13.852">
  <defs>
    <style>
      .cls-1 {
        fill: #f7a031;
      }
    </style>
  </defs>
  <path id="ic_event_available_24px" class="cls-1" d="M12.371,7.968l-.734-.734-3.38,3.38L6.789,9.145l-.734.734,2.2,2.2Zm1.711-5.582h-.693V1H12V2.385H6.463V1H5.078V2.385H4.385A1.379,1.379,0,0,0,3.007,3.77L3,13.467a1.385,1.385,0,0,0,1.385,1.385h9.7a1.389,1.389,0,0,0,1.385-1.385V3.77A1.389,1.389,0,0,0,14.082,2.385Zm0,11.082h-9.7V5.848h9.7Z" transform="translate(-3 -1)"/>
</svg>
