<svg xmlns="http://www.w3.org/2000/svg" viewBox="0 0 36 36">
  <defs>
    <style>
      .cls-1 {
        fill: #dc4e41;
      }

      .cls-2 {
        fill: #fff;
      }
    </style>
  </defs>
  <g id="google-plus_1_" data-name="google-plus (1)" transform="translate(0 0.001)">
    <g id="Groupe_300" data-name="Groupe 300" transform="translate(0 -0.001)">
      <circle id="XMLID_30_" class="cls-1" cx="18" cy="18" r="18" transform="translate(0 0)"/>
    </g>
    <g id="Groupe_302" data-name="Groupe 302" transform="translate(6.262 11.372)">
      <path id="Tracé_430" data-name="Tracé 430" class="cls-1" d="M19.521,42.878a7.418,7.418,0,0,0,5,7.016,7.32,7.32,0,0,0,8-2.133,8.39,8.39,0,0,0,1.5-5.935c-2.367-.021-4.734-.014-7.1-.011,0,.843,0,1.683,0,2.527,1.417.039,2.835.021,4.252.05a4.1,4.1,0,0,1-2.41,2.81,4.688,4.688,0,1,1-3.157-8.82,5.213,5.213,0,0,1,4.387.858c.659-.617,1.276-1.276,1.882-1.942a7.461,7.461,0,0,0-12.367,5.581Z" transform="translate(-19.517 -35.446)"/>
      <path id="Tracé_431" data-name="Tracé 431" class="cls-1" d="M74.579,48.668c-.007.705-.014,1.414-.018,2.119-.709.007-1.414.011-2.119.014v2.112c.705,0,1.414.007,2.119.014.007.705.007,1.41.014,2.119.7,0,1.407,0,2.112,0,0-.709.007-1.414.014-2.123l2.119-.011V50.8c-.7,0-1.414-.007-2.119-.014,0-.705-.011-1.414-.014-2.119Z" transform="translate(-55.46 -44.425)"/>
      <g id="Groupe_301" data-name="Groupe 301">
        <path id="Tracé_432" data-name="Tracé 432" class="cls-2" d="M19.521,42.877A7.461,7.461,0,0,1,31.889,37.3c-.606.666-1.223,1.325-1.882,1.942a5.213,5.213,0,0,0-4.387-.858,4.688,4.688,0,1,0,3.157,8.82,4.1,4.1,0,0,0,2.41-2.81c-1.417-.028-2.835-.011-4.252-.05,0-.843-.007-1.683,0-2.527,2.364,0,4.731-.011,7.1.011a8.387,8.387,0,0,1-1.5,5.935,7.32,7.32,0,0,1-8,2.133A7.418,7.418,0,0,1,19.521,42.877Z" transform="translate(-19.517 -35.445)"/>
        <path id="Tracé_433" data-name="Tracé 433" class="cls-2" d="M74.579,48.668h2.108c0,.705.011,1.414.014,2.119.7.007,1.414.011,2.119.014v2.112l-2.119.011c-.007.709-.011,1.414-.014,2.123-.7,0-1.411,0-2.112,0-.007-.709-.007-1.414-.014-2.119-.7-.007-1.414-.011-2.119-.014V50.8q1.058-.005,2.119-.014C74.565,50.082,74.572,49.373,74.579,48.668Z" transform="translate(-55.46 -44.425)"/>
      </g>
    </g>
  </g>
</svg>
