<svg xmlns="http://www.w3.org/2000/svg" viewBox="0 0 28.916 32">
  <defs>
    <style>
      .cls-1 {
        fill: #7a7c7e;
      }
    </style>
  </defs>
  <path id="ic_share_24px" class="cls-1" d="M27.1,24.618a4.678,4.678,0,0,0-3.149,1.237L12.494,19.189a5.259,5.259,0,0,0,.145-1.124,5.259,5.259,0,0,0-.145-1.124l11.325-6.6a4.809,4.809,0,1,0-1.542-3.518,5.259,5.259,0,0,0,.145,1.124L11.1,14.546a4.819,4.819,0,1,0,0,7.036l11.438,6.683a4.532,4.532,0,0,0-.129,1.044A4.691,4.691,0,1,0,27.1,24.618Z" transform="translate(-3 -2)"/>
</svg>
