<svg id="instagram" xmlns="http://www.w3.org/2000/svg" viewBox="0 0 36 36">
  <defs>
    <style>
      .cls-1 {
        fill: #6a453b;
      }
    </style>
  </defs>
  <path id="Tracé_434" data-name="Tracé 434" class="cls-1" d="M37.595,23.88H26.865a3.109,3.109,0,0,0-3.106,3.106v10.73a3.11,3.11,0,0,0,3.106,3.106h10.73A3.11,3.11,0,0,0,40.7,37.716V26.986A3.11,3.11,0,0,0,37.595,23.88ZM32.23,37.928a5.577,5.577,0,1,1,5.577-5.577A5.584,5.584,0,0,1,32.23,37.928Zm5.757-10a1.32,1.32,0,1,1,1.32-1.32A1.321,1.321,0,0,1,37.986,27.927Z" transform="translate(-14.23 -14.302)"/>
  <path id="Tracé_435" data-name="Tracé 435" class="cls-1" d="M40.07,36.971a3.22,3.22,0,1,0,3.22,3.22A3.225,3.225,0,0,0,40.07,36.971Z" transform="translate(-22.07 -22.143)"/>
  <path id="Tracé_436" data-name="Tracé 436" class="cls-1" d="M18,0A18,18,0,1,0,36,18,18,18,0,0,0,18,0ZM28.828,23.413a5.468,5.468,0,0,1-5.463,5.463H12.635a5.469,5.469,0,0,1-5.463-5.463V12.684a5.469,5.469,0,0,1,5.463-5.463h10.73a5.469,5.469,0,0,1,5.463,5.463Z"/>
</svg>
