<svg xmlns="http://www.w3.org/2000/svg" xmlns:xlink="http://www.w3.org/1999/xlink" viewBox="0 0 147.872 81.348">
  <defs>
    <style>
      .cls-1 {
        fill: url(#radial-gradient);
      }

      .cls-2 {
        fill: #fff;
      }
    </style>
    <radialGradient id="radial-gradient" cx="116.712" cy="175.863" r="38.5" gradientTransform="translate(-1.469 -1.525) scale(1.037 1.037)" gradientUnits="userSpaceOnUse">
      <stop offset="0" stop-color="#fcec2e"/>
      <stop offset="1" stop-color="#f79c31"/>
    </radialGradient>
  </defs>
  <g id="logo_aip" data-name="logo aip" transform="translate(0.021 0.01)">
    <path id="Tracé_93" data-name="Tracé 93" class="cls-1" d="M125.7,141.858l-3.337-1.852-2.411,1.48.372,1.852-5-1.3-.74-1.3-5.194-.926.926-2.411L109.2,135.18l-2.225.558-2.965.368-3.337-.182-5.194,1.666H92.519l-1.666-.926-1.3,2.965-1.852.74-1.112,2.783s-3.151,2.406-3.337,2.6-1.852,2.038-1.852,2.038l-1.48,2.965-1.857,2.225,1.3,2.411.372,1.666-1.112,2.6-1.112,1.484,1.51,1.666.182,1.3,3.523,3.151.537,2.043,2.965,1.666s1.484,1.112,2.411,1.671,4.077-.558,4.077-.558l2.965.372,2.965-1.112,4.821-.554,1.48,2.038h2.779l.744.74h.554l.186.926-1.3,3.7,1.484,2.783,2.225,2.6.74,3.151v.926l1.112,2.6-.372,1.108-1.3,1.484-.753,4.25.186,1.852,2.411,3.523.368.554-.186.74.558,3.9,1.48,2.406,1.112,1.852,1.861,2.4-1.112.372,1.112,1.852,4.077-.926,2.406.74,3.523-.926,4.276-4.436,2.038-2.779-.186-1.852,2.779-1.112v-2.779l-.554-2.225,3.151-2.965,1.852-.558,2.038-2.225-.186-5.193-1.844-4.073a4.151,4.151,0,0,1-.186-.74c0-.186.554-2.038.554-2.038l1.671-2.6,5.557-4.821,3.337-3.7,2.779-5.375V164.1L150,165.761l-2.965-.554-.74-1.484-2.986-3.519-1.857-3.337s-1.3-.926-1.3-1.112-.558-3.151-.558-3.151l-1.852-1.666.186-.926-3.151-5.929,1.666,1.666a17.126,17.126,0,0,0,.926-1.852,19.147,19.147,0,0,0-.74-1.852,9.032,9.032,0,0,1-2.406.182c-.368-.186-1.3-.554-1.3-.554l-2.4.74Z" transform="translate(-77.53 -135.19)"/>
    <path id="Tracé_94" data-name="Tracé 94" class="cls-2" d="M166.158,165.761l-2.965-.554-.74-1.484-2.986-3.519-1.857-3.337s-1.3-.926-1.3-1.112-.558-3.151-.558-3.151l-1.852-1.666.186-.926-3.151-5.929,1.666,1.666a17.126,17.126,0,0,0,.926-1.852,19.139,19.139,0,0,0-.74-1.852,9.032,9.032,0,0,1-2.406.182c-.368-.186-1.3-.554-1.3-.554l-2.4.74-4.817-.554-3.337-1.852-2.411,1.48.372,1.852-5-1.3-.74-1.3-5.193-.926.926-2.411-1.112-2.225-2.225.558-2.965.368-3.337-.182-5.193,1.666h-2.965l-1.666-.926L106,139h.234a37.744,37.744,0,0,1,24.055,66.823l.264,1.835,1.48,2.406,1.112,1.852L135,214.3l-1.112.372L135,216.528l4.077-.926,2.406.74,3.523-.926,4.276-4.436,2.038-2.779-.186-1.852,2.779-1.112v-2.779l-.554-2.225,3.151-2.965,1.852-.558,2.038-2.225-.186-5.193-1.844-4.073a4.151,4.151,0,0,1-.186-.74c0-.186.554-2.038.554-2.038l1.671-2.6,5.557-4.821,3.337-3.7,2.779-5.375V164.1Z" transform="translate(-93.69 -135.19)"/>
    <path id="Tracé_95" data-name="Tracé 95" class="cls-2" d="M265.567,218l12.118,32.459h-7.392l-2.454-7.223H255.721l-2.545,7.223H246L258.27,218ZM266,237.908,261.909,226h-.091l-4.25,11.91Z" transform="translate(-173.099 -182.166)"/>
    <path id="Tracé_96" data-name="Tracé 96" class="cls-2" d="M332.892,218v32.459H325.76V218Z" transform="translate(-218.339 -182.166)"/>
    <path id="Tracé_97" data-name="Tracé 97" class="cls-2" d="M371.363,217.994a13.554,13.554,0,0,1,5.194.887,9.7,9.7,0,0,1,3.462,2.341,9.025,9.025,0,0,1,1.956,3.315,12.377,12.377,0,0,1,0,7.7,8.955,8.955,0,0,1-1.956,3.341,9.7,9.7,0,0,1-3.462,2.341,13.559,13.559,0,0,1-5.194.866h-7.5v11.633H356.73V217.994ZM369.4,233.245a14.938,14.938,0,0,0,2.363-.182,5.54,5.54,0,0,0,2-.705,3.9,3.9,0,0,0,1.385-1.48,6.228,6.228,0,0,0,0-5,3.866,3.866,0,0,0-1.385-1.476,5.626,5.626,0,0,0-2-.705,15.476,15.476,0,0,0-2.363-.182h-5.531v9.729Z" transform="translate(-235.906 -182.16)"/>
    <path id="Tracé_98" data-name="Tracé 98" class="cls-2" d="M225.554,308.15h.866l1.783,4.635h-.866l-.433-1.238h-1.852l-.433,1.225h-.84Zm-.286,2.792h1.415l-.692-1.991h0Z" transform="translate(-160.495 -233.3)"/>
    <path id="Tracé_99" data-name="Tracé 99" class="cls-2" d="M234,309.43h.55v-.281a1.433,1.433,0,0,1,.078-.515.727.727,0,0,1,.208-.3.641.641,0,0,1,.3-.143,1.487,1.487,0,0,1,.346-.039,2.093,2.093,0,0,1,.519.048v.576a.832.832,0,0,0-.156-.026,1.187,1.187,0,0,0-.19,0,.433.433,0,0,0-.255.074.3.3,0,0,0-.108.277v.346h.632v.55H235.3v2.8h-.74v-2.8H234Z" transform="translate(-166.292 -233.298)"/>
    <path id="Tracé_100" data-name="Tracé 100" class="cls-2" d="M239.493,310.991h.692v.649h0a.8.8,0,0,1,.125-.268,1.176,1.176,0,0,1,.229-.234,1.057,1.057,0,0,1,.294-.173.9.9,0,0,1,.333-.065h.277v.714h-.316a.822.822,0,0,0-.645.294,1.1,1.1,0,0,0-.195.359,1.562,1.562,0,0,0-.069.493v1.6h-.74Z" transform="translate(-169.401 -234.86)"/>
    <path id="Tracé_101" data-name="Tracé 101" class="cls-2" d="M244.83,308.15h.74v.7h-.74Zm0,1.3h.74V312.8h-.74Z" transform="translate(-172.435 -233.3)"/>
    <path id="Tracé_102" data-name="Tracé 102" class="cls-2" d="M250.458,312.134a.693.693,0,0,0-.251-.467.805.805,0,0,0-.515-.16,1.155,1.155,0,0,0-.307.048.775.775,0,0,0-.3.182,1.026,1.026,0,0,0-.225.372,1.731,1.731,0,0,0-.091.619,1.7,1.7,0,0,0,.048.433,1.037,1.037,0,0,0,.156.368.809.809,0,0,0,.277.264.757.757,0,0,0,.407.1.749.749,0,0,0,.537-.2.957.957,0,0,0,.264-.567h.74a1.636,1.636,0,0,1-.5,1,1.51,1.51,0,0,1-1.043.346,1.732,1.732,0,0,1-.7-.13,1.52,1.52,0,0,1-.511-.364,1.606,1.606,0,0,1-.316-.55,2.2,2.2,0,0,1-.1-.688,2.366,2.366,0,0,1,.1-.71,1.588,1.588,0,0,1,.312-.571,1.441,1.441,0,0,1,.515-.385,1.765,1.765,0,0,1,.723-.138,2.089,2.089,0,0,1,.554.074,1.468,1.468,0,0,1,.467.225,1.177,1.177,0,0,1,.338.377,1.3,1.3,0,0,1,.156.537Z" transform="translate(-174.25 -234.882)"/>
    <path id="Tracé_103" data-name="Tracé 103" class="cls-2" d="M259.331,313.635a.372.372,0,0,0,.035.195c.022.039.069.056.138.056h.182v.515l-.1.03-.126.026-.13.022h-.1a.714.714,0,0,1-.377-.091.432.432,0,0,1-.195-.316,1.3,1.3,0,0,1-.541.312,2.135,2.135,0,0,1-.619.1,1.461,1.461,0,0,1-.433-.061,1.086,1.086,0,0,1-.368-.182.866.866,0,0,1-.251-.3.927.927,0,0,1-.1-.433,1.021,1.021,0,0,1,.113-.506.866.866,0,0,1,.3-.307,1.333,1.333,0,0,1,.433-.156,4.369,4.369,0,0,1,.467-.078,3.2,3.2,0,0,1,.381-.052,1.951,1.951,0,0,0,.32-.056.433.433,0,0,0,.221-.121.316.316,0,0,0,.082-.242.368.368,0,0,0-.069-.234.406.406,0,0,0-.169-.139.6.6,0,0,0-.221-.065,1.479,1.479,0,0,0-.234,0,.939.939,0,0,0-.515.13.506.506,0,0,0-.225.4h-.74a1.122,1.122,0,0,1,.156-.541,1.049,1.049,0,0,1,.346-.342,1.4,1.4,0,0,1,.476-.182,2.842,2.842,0,0,1,.545-.052,2.317,2.317,0,0,1,.489.052,1.348,1.348,0,0,1,.433.169.908.908,0,0,1,.312.3.818.818,0,0,1,.117.433Zm-.74-.926a.927.927,0,0,1-.433.134,4.8,4.8,0,0,0-.493.065,1.975,1.975,0,0,0-.229.056.687.687,0,0,0-.195.1.432.432,0,0,0-.134.16.588.588,0,0,0-.048.242.312.312,0,0,0,.074.208.5.5,0,0,0,.169.134.768.768,0,0,0,.221.069,1.4,1.4,0,0,0,.221,0,1.174,1.174,0,0,0,.264-.03.865.865,0,0,0,.268-.112.706.706,0,0,0,.212-.195.516.516,0,0,0,.087-.3Z" transform="translate(-178.968 -234.894)"/>
    <path id="Tracé_104" data-name="Tracé 104" class="cls-2" d="M265.046,310.977h.7v.493h0a1.22,1.22,0,0,1,.433-.433,1.164,1.164,0,0,1,.606-.16,1.255,1.255,0,0,1,.866.286,1.09,1.09,0,0,1,.316.866v2.3h-.74v-2.1a.922.922,0,0,0-.169-.576.615.615,0,0,0-.485-.177.771.771,0,0,0-.338.069.734.734,0,0,0-.255.186.9.9,0,0,0-.16.281,1.019,1.019,0,0,0-.061.346v1.978h-.74Z" transform="translate(-183.887 -234.846)"/>
    <path id="Tracé_105" data-name="Tracé 105" class="cls-2" d="M278.1,308.15h.822v4.635H278.1Z" transform="translate(-191.306 -233.3)"/>
    <path id="Tracé_106" data-name="Tracé 106" class="cls-2" d="M282,310.977h.7v.493h0a1.221,1.221,0,0,1,.433-.433,1.165,1.165,0,0,1,.606-.16,1.255,1.255,0,0,1,.866.286,1.091,1.091,0,0,1,.316.866v2.3h-.74v-2.1a.922.922,0,0,0-.169-.576.615.615,0,0,0-.485-.177.771.771,0,0,0-.338.069.735.735,0,0,0-.255.186.9.9,0,0,0-.16.281,1.02,1.02,0,0,0-.061.346v1.978H282Z" transform="translate(-193.518 -234.846)"/>
    <path id="Tracé_107" data-name="Tracé 107" class="cls-2" d="M289.88,311.11h.8l.866,2.575h0l.818-2.575h.766l-1.2,3.354H291.1Z" transform="translate(-197.988 -234.979)"/>
    <path id="Tracé_108" data-name="Tracé 108" class="cls-2" d="M298.79,312.843a1.218,1.218,0,0,0,.056.376.867.867,0,0,0,.164.316.84.84,0,0,0,.281.221.953.953,0,0,0,.4.078.866.866,0,0,0,.519-.139.809.809,0,0,0,.3-.433h.7a1.411,1.411,0,0,1-.2.489,1.355,1.355,0,0,1-.342.359,1.385,1.385,0,0,1-.454.221,1.732,1.732,0,0,1-.519.074,1.779,1.779,0,0,1-.7-.13,1.481,1.481,0,0,1-.519-.364,1.537,1.537,0,0,1-.316-.558,2.207,2.207,0,0,1-.108-.714,2.046,2.046,0,0,1,.112-.675,1.832,1.832,0,0,1,.325-.567,1.605,1.605,0,0,1,.511-.385,1.544,1.544,0,0,1,.675-.143,1.519,1.519,0,0,1,.71.164,1.568,1.568,0,0,1,.524.433,1.841,1.841,0,0,1,.3.628,1.974,1.974,0,0,1,.048.731Zm1.731-.489a1.272,1.272,0,0,0-.074-.338,1.014,1.014,0,0,0-.169-.281.975.975,0,0,0-.26-.195.806.806,0,0,0-.342-.074.858.858,0,0,0-.628.255,1.048,1.048,0,0,0-.182.281,1.036,1.036,0,0,0-.074.351Z" transform="translate(-202.622 -234.842)"/>
    <path id="Tracé_109" data-name="Tracé 109" class="cls-2" d="M307.073,313.273a.558.558,0,0,0,.247.454.965.965,0,0,0,.511.13h.238a1.19,1.19,0,0,0,.251-.065.5.5,0,0,0,.19-.13.342.342,0,0,0,.069-.234.329.329,0,0,0-.1-.234.7.7,0,0,0-.251-.143,2.22,2.22,0,0,0-.346-.1l-.4-.087a3.551,3.551,0,0,1-.4-.108,1.3,1.3,0,0,1-.346-.177.806.806,0,0,1-.242-.281.892.892,0,0,1-.091-.433.757.757,0,0,1,.134-.459,1.027,1.027,0,0,1,.338-.3,1.49,1.49,0,0,1,.433-.16,2.636,2.636,0,0,1,.476-.043,2.093,2.093,0,0,1,.5.056,1.342,1.342,0,0,1,.433.177,1.061,1.061,0,0,1,.316.32,1.091,1.091,0,0,1,.16.476h-.77a.455.455,0,0,0-.247-.355,1,1,0,0,0-.433-.091h-.186a.956.956,0,0,0-.2.048.467.467,0,0,0-.16.1.251.251,0,0,0-.065.177.277.277,0,0,0,.1.221.74.74,0,0,0,.247.143,2.652,2.652,0,0,0,.346.091l.4.087c.134.03.268.065.4.108a1.3,1.3,0,0,1,.346.177.9.9,0,0,1,.247.277.866.866,0,0,1,.1.433.9.9,0,0,1-.138.506,1.061,1.061,0,0,1-.355.338,1.572,1.572,0,0,1-.48.19,2.461,2.461,0,0,1-.528.056,2.309,2.309,0,0,1-.589-.069,1.451,1.451,0,0,1-.467-.216,1.144,1.144,0,0,1-.312-.364,1.207,1.207,0,0,1-.117-.519Z" transform="translate(-207.313 -234.865)"/>
    <path id="Tracé_110" data-name="Tracé 110" class="cls-2" d="M313.77,309.788h.558V308.78h.74v1.008h.671v.55h-.671v2a.347.347,0,0,0,.048.143.2.2,0,0,0,.108.087.485.485,0,0,0,.195.03h.182a.644.644,0,0,0,.156-.022v.571l-.242.026a2.151,2.151,0,0,1-.238,0,1.559,1.559,0,0,1-.472-.056.633.633,0,0,1-.281-.16.579.579,0,0,1-.134-.273,1.822,1.822,0,0,1-.043-.368v-1.982h-.558Z" transform="translate(-211.538 -233.657)"/>
    <path id="Tracé_111" data-name="Tracé 111" class="cls-2" d="M319.59,308.15h.74v.7h-.74Zm0,1.3h.74V312.8h-.74Z" transform="translate(-214.839 -233.3)"/>
    <path id="Tracé_112" data-name="Tracé 112" class="cls-2" d="M323.126,310.977h.7v.493h0a1.22,1.22,0,0,1,.433-.433,1.164,1.164,0,0,1,.606-.16,1.255,1.255,0,0,1,.866.286,1.09,1.09,0,0,1,.316.866v2.3h-.74v-2.1a.922.922,0,0,0-.169-.576.615.615,0,0,0-.485-.177.771.771,0,0,0-.338.069.734.734,0,0,0-.255.186.9.9,0,0,0-.16.281,1.021,1.021,0,0,0-.061.346v1.978h-.74Z" transform="translate(-216.83 -234.846)"/>
    <path id="Tracé_113" data-name="Tracé 113" class="cls-2" d="M334.669,314.171a1.441,1.441,0,0,1-.433,1.134,1.818,1.818,0,0,1-1.225.372,2.6,2.6,0,0,1-.511-.052,1.561,1.561,0,0,1-.467-.177,1.137,1.137,0,0,1-.351-.325.987.987,0,0,1-.169-.493h.74a.6.6,0,0,0,.108.255.524.524,0,0,0,.186.152.7.7,0,0,0,.238.074h.273a.865.865,0,0,0,.654-.221.9.9,0,0,0,.208-.636v-.5h0a1.147,1.147,0,0,1-1,.589,1.524,1.524,0,0,1-.688-.139,1.333,1.333,0,0,1-.467-.381,1.652,1.652,0,0,1-.268-.563,2.663,2.663,0,0,1-.082-.684,1.968,1.968,0,0,1,.1-.641,1.666,1.666,0,0,1,.3-.537,1.4,1.4,0,0,1,1.117-.5,1.259,1.259,0,0,1,.584.134.865.865,0,0,1,.407.433h0v-.459h.74Zm-1.64-.411a.779.779,0,0,0,.433-.1.823.823,0,0,0,.281-.264,1.33,1.33,0,0,0,.156-.377,2.064,2.064,0,0,0,.048-.433,1.659,1.659,0,0,0-.052-.433,1.061,1.061,0,0,0-.16-.355.761.761,0,0,0-.277-.247.865.865,0,0,0-.433-.091.779.779,0,0,0-.433.1.865.865,0,0,0-.273.268,1.207,1.207,0,0,0-.152.377,2.006,2.006,0,0,0-.043.433,1.614,1.614,0,0,0,.052.407,1.167,1.167,0,0,0,.156.351.9.9,0,0,0,.273.255A.792.792,0,0,0,333.028,313.76Z" transform="translate(-221.544 -234.859)"/>
    <path id="Tracé_114" data-name="Tracé 114" class="cls-2" d="M345.08,308.148h2.043a1.944,1.944,0,0,1,.8.143,1.273,1.273,0,0,1,.48.359,1.182,1.182,0,0,1,.229.467,1.892,1.892,0,0,1,.065.467,1.83,1.83,0,0,1-.065.463,1.165,1.165,0,0,1-.229.463,1.225,1.225,0,0,1-.48.355,1.947,1.947,0,0,1-.8.138h-1.212v1.779H345.1Zm.809,2.194h1.19a1.043,1.043,0,0,0,.277-.039.78.78,0,0,0,.264-.125.653.653,0,0,0,.195-.234.831.831,0,0,0,.074-.368.949.949,0,0,0-.065-.376.571.571,0,0,0-.173-.234.605.605,0,0,0-.255-.121,1.356,1.356,0,0,0-.3-.035h-1.182Z" transform="translate(-229.298 -233.298)"/>
    <path id="Tracé_115" data-name="Tracé 115" class="cls-2" d="M354.89,308.15h.74v4.635h-.74Z" transform="translate(-234.862 -233.3)"/>
    <path id="Tracé_116" data-name="Tracé 116" class="cls-2" d="M361.081,313.629a.432.432,0,0,0,.035.195.16.16,0,0,0,.143.056h.182v.515l-.1.03-.125.026-.13.022h-.108a.714.714,0,0,1-.377-.091.433.433,0,0,1-.195-.316,1.3,1.3,0,0,1-.545.312,2.112,2.112,0,0,1-.619.1,1.434,1.434,0,0,1-.433-.061,1.048,1.048,0,0,1-.368-.182.867.867,0,0,1-.255-.3,1.138,1.138,0,0,1,.022-.939.813.813,0,0,1,.3-.307,1.254,1.254,0,0,1,.433-.156,4.135,4.135,0,0,1,.463-.078,3.261,3.261,0,0,1,.385-.052,2.042,2.042,0,0,0,.32-.056.5.5,0,0,0,.221-.121.333.333,0,0,0,.082-.242.394.394,0,0,0-.069-.234.467.467,0,0,0-.169-.138.647.647,0,0,0-.225-.065,1.494,1.494,0,0,0-.234,0,.922.922,0,0,0-.511.13.506.506,0,0,0-.229.4h-.74a1.121,1.121,0,0,1,.156-.541,1.086,1.086,0,0,1,.346-.342,1.459,1.459,0,0,1,.48-.182,2.839,2.839,0,0,1,.545-.052,2.282,2.282,0,0,1,.459.017,1.413,1.413,0,0,1,.433.169.934.934,0,0,1,.307.3.818.818,0,0,1,.117.433Zm-.762-.926a.926.926,0,0,1-.433.134,4.81,4.81,0,0,0-.493.065,1.908,1.908,0,0,0-.225.056.69.69,0,0,0-.195.1.4.4,0,0,0-.134.16.529.529,0,0,0-.048.242.308.308,0,0,0,.069.208.48.48,0,0,0,.173.134.7.7,0,0,0,.221.069,1.307,1.307,0,0,0,.216,0,1.218,1.218,0,0,0,.268-.03.908.908,0,0,0,.268-.113.761.761,0,0,0,.212-.195.516.516,0,0,0,.082-.3Z" transform="translate(-236.677 -234.888)"/>
    <path id="Tracé_117" data-name="Tracé 117" class="cls-2" d="M366,309.788h.558V308.78h.74v1.008h.667v.55H367.3v1.792a1.441,1.441,0,0,0,0,.2.346.346,0,0,0,.043.143.216.216,0,0,0,.108.087.484.484,0,0,0,.195.03h.156a.645.645,0,0,0,.156-.022v.571l-.238.026a2.23,2.23,0,0,1-.242,0,1.579,1.579,0,0,1-.472-.056.619.619,0,0,1-.277-.16.584.584,0,0,1-.139-.273,2.232,2.232,0,0,1-.039-.368v-1.982H366Z" transform="translate(-241.164 -233.657)"/>
    <path id="Tracé_118" data-name="Tracé 118" class="cls-2" d="M372.183,312.843a1.366,1.366,0,0,0,.052.377.962.962,0,0,0,.169.316.823.823,0,0,0,.277.221.952.952,0,0,0,.4.078.866.866,0,0,0,.524-.139.831.831,0,0,0,.294-.433h.7a1.4,1.4,0,0,1-.2.489,1.368,1.368,0,0,1-.346.359,1.406,1.406,0,0,1-.433.221,1.935,1.935,0,0,1-1.225-.056,1.428,1.428,0,0,1-.515-.364,1.545,1.545,0,0,1-.32-.558,2.331,2.331,0,0,1-.1-.714,1.938,1.938,0,0,1,.113-.675,1.671,1.671,0,0,1,.325-.567,1.6,1.6,0,0,1,1.9-.364,1.611,1.611,0,0,1,.524.433,1.753,1.753,0,0,1,.3.628,1.886,1.886,0,0,1,.052.731Zm1.731-.489a1.13,1.13,0,0,0-.078-.338.84.84,0,0,0-.169-.281.867.867,0,0,0-.26-.195.774.774,0,0,0-.338-.074.866.866,0,0,0-.355.069.763.763,0,0,0-.273.186.865.865,0,0,0-.182.281.939.939,0,0,0-.074.351Z" transform="translate(-244.26 -234.842)"/>
    <path id="Tracé_119" data-name="Tracé 119" class="cls-2" d="M379.37,309.43h.55v-.281a1.432,1.432,0,0,1,.078-.515.727.727,0,0,1,.208-.3.645.645,0,0,1,.294-.143,1.558,1.558,0,0,1,.351-.039,2.126,2.126,0,0,1,.519.048v.576a.834.834,0,0,0-.156-.026,1.187,1.187,0,0,0-.19,0,.433.433,0,0,0-.255.074.3.3,0,0,0-.108.277v.346h.632v.55h-.632v2.8h-.74v-2.8h-.55Z" transform="translate(-248.747 -233.298)"/>
    <path id="Tracé_120" data-name="Tracé 120" class="cls-2" d="M386.192,314.436a1.885,1.885,0,0,1-.718-.13,1.606,1.606,0,0,1-.532-.368,1.562,1.562,0,0,1-.329-.558,2.307,2.307,0,0,1,0-1.424,1.563,1.563,0,0,1,.329-.558,1.532,1.532,0,0,1,.532-.364,1.991,1.991,0,0,1,1.437,0,1.532,1.532,0,0,1,.532.364,1.562,1.562,0,0,1,.329.558,2.229,2.229,0,0,1,0,1.424,1.562,1.562,0,0,1-.329.558,1.606,1.606,0,0,1-.532.368A1.885,1.885,0,0,1,386.192,314.436Zm0-.584a.865.865,0,0,0,.433-.1.9.9,0,0,0,.3-.273,1.247,1.247,0,0,0,.173-.377,1.675,1.675,0,0,0,0-.866,1.226,1.226,0,0,0-.173-.381.894.894,0,0,0-1.463,0,1.223,1.223,0,0,0-.173.381,1.812,1.812,0,0,0,0,.866,1.246,1.246,0,0,0,.173.377.9.9,0,0,0,.3.273A.865.865,0,0,0,386.192,313.852Z" transform="translate(-251.657 -234.86)"/>
    <path id="Tracé_121" data-name="Tracé 121" class="cls-2" d="M393.733,310.991h.692v.649h0a.73.73,0,0,1,.13-.268,1.146,1.146,0,0,1,.225-.234,1.119,1.119,0,0,1,.294-.173.9.9,0,0,1,.333-.065h.277v.714h-.316a.822.822,0,0,0-.645.294,1.1,1.1,0,0,0-.195.359,1.563,1.563,0,0,0-.069.493v1.6h-.74Z" transform="translate(-256.887 -234.86)"/>
    <path id="Tracé_122" data-name="Tracé 122" class="cls-2" d="M399,310.991h.7v.467h.022a1.554,1.554,0,0,1,.182-.229.865.865,0,0,1,.216-.173.975.975,0,0,1,.273-.113,1.3,1.3,0,0,1,.359-.043,1.2,1.2,0,0,1,.567.134.766.766,0,0,1,.372.433,1.512,1.512,0,0,1,.433-.411,1.177,1.177,0,0,1,.615-.147,1.225,1.225,0,0,1,.831.26,1.117,1.117,0,0,1,.294.866v2.315h-.74v-2.324a.765.765,0,0,0-.074-.286.432.432,0,0,0-.186-.186.731.731,0,0,0-.338-.065.628.628,0,0,0-.545.234,1.116,1.116,0,0,0-.169.662v1.965h-.736v-2.164a.931.931,0,0,0-.126-.528.541.541,0,0,0-.467-.177.676.676,0,0,0-.506.225.864.864,0,0,0-.164.273,1.1,1.1,0,0,0-.061.372v1.991H399Z" transform="translate(-259.881 -234.859)"/>
    <path id="Tracé_123" data-name="Tracé 123" class="cls-2" d="M412.467,312.843a1.361,1.361,0,0,0,.052.377.953.953,0,0,0,.164.316.839.839,0,0,0,.281.221.952.952,0,0,0,.4.078.866.866,0,0,0,.524-.138.831.831,0,0,0,.294-.433h.7a1.411,1.411,0,0,1-.2.489,1.354,1.354,0,0,1-.342.359,1.406,1.406,0,0,1-.433.221,1.935,1.935,0,0,1-1.225-.056,1.429,1.429,0,0,1-.515-.364,1.546,1.546,0,0,1-.32-.558,2.331,2.331,0,0,1-.1-.714,1.938,1.938,0,0,1,.113-.675,1.672,1.672,0,0,1,.325-.567,1.544,1.544,0,0,1,.506-.385,1.566,1.566,0,0,1,.68-.143,1.544,1.544,0,0,1,.71.164,1.593,1.593,0,0,1,.519.433,1.764,1.764,0,0,1,.3.628,1.887,1.887,0,0,1,.048.731Zm1.731-.489a1.12,1.12,0,0,0-.074-.338.841.841,0,0,0-.169-.281.866.866,0,0,0-.26-.195.789.789,0,0,0-.338-.074.84.84,0,0,0-.355.069.762.762,0,0,0-.273.186.951.951,0,0,0-.255.632Z" transform="translate(-267.108 -234.842)"/>
  </g>
</svg>
