<svg xmlns="http://www.w3.org/2000/svg" viewBox="0 0 36 36">
  <defs>
    <style>
      .cls-1 {
        fill: #55acee;
      }

      .cls-2 {
        fill: #f1f2f2;
      }
    </style>
  </defs>
  <g id="twitter_1_" data-name="twitter (1)" transform="translate(-0.001)">
    <circle id="Ellipse_20" data-name="Ellipse 20" class="cls-1" cx="18" cy="18" r="18" transform="translate(0.001 0)"/>
    <g id="Groupe_304" data-name="Groupe 304" transform="translate(8.055 10.918)">
      <path id="Tracé_438" data-name="Tracé 438" class="cls-2" d="M46.074,36.046a8.584,8.584,0,0,1-2.471.677,4.314,4.314,0,0,0,1.892-2.38,8.613,8.613,0,0,1-2.732,1.044,4.306,4.306,0,0,0-7.332,3.925,12.213,12.213,0,0,1-8.868-4.5,4.307,4.307,0,0,0,1.331,5.744,4.272,4.272,0,0,1-1.949-.539c0,.018,0,.037,0,.055A4.305,4.305,0,0,0,29.4,44.294a4.319,4.319,0,0,1-1.943.074,4.307,4.307,0,0,0,4.019,2.988,8.685,8.685,0,0,1-6.37,1.781A12.236,12.236,0,0,0,43.939,38.829c0-.186,0-.372-.013-.556a8.725,8.725,0,0,0,2.147-2.227Z" transform="translate(-25.103 -34.028)"/>
    </g>
  </g>
</svg>
