<svg xmlns="http://www.w3.org/2000/svg" viewBox="0 0 21 14">
  <defs>
    <style>
      .cls-1 {
        fill: #f0f0f0;
      }

      .cls-2 {
        fill: #d80027;
      }

      .cls-3 {
        fill: #0052b4;
      }
    </style>
  </defs>
  <g id="united-kingdom" transform="translate(0 -85.33)">
    <rect id="Rectangle_11" data-name="Rectangle 11" class="cls-1" width="21" height="14" transform="translate(0 85.33)"/>
    <path id="Tracé_4" data-name="Tracé 4" class="cls-2" d="M11.812,85.33H9.187v5.687H0v2.625H9.187V99.33h2.625V93.642H21V91.017H11.812Z"/>
    <g id="Groupe_7" data-name="Groupe 7" transform="translate(12.782 94.765)">
      <path id="Tracé_5" data-name="Tracé 5" class="cls-3" d="M393.785,315.358l4.849,2.694v-2.694Z" transform="translate(-390.416 -315.358)"/>
      <path id="Tracé_6" data-name="Tracé 6" class="cls-3" d="M311.652,315.358l8.217,4.565v-1.291l-5.894-3.274Z" transform="translate(-311.652 -315.358)"/>
      <path id="Tracé_7" data-name="Tracé 7" class="cls-3" d="M317.68,348.347,311.652,345v3.349Z" transform="translate(-311.652 -343.782)"/>
    </g>
    <path id="Tracé_8" data-name="Tracé 8" class="cls-1" d="M311.652,315.358l8.217,4.565v-1.291l-5.894-3.274Z" transform="translate(-298.87 -220.593)"/>
    <path id="Tracé_9" data-name="Tracé 9" class="cls-2" d="M311.652,315.358l8.217,4.565v-1.291l-5.894-3.274Z" transform="translate(-298.87 -220.593)"/>
    <g id="Groupe_8" data-name="Groupe 8" transform="translate(0 94.764)">
      <path id="Tracé_10" data-name="Tracé 10" class="cls-3" d="M3.705,315.356,0,317.415v-2.059Z" transform="translate(0 -315.356)"/>
      <path id="Tracé_11" data-name="Tracé 11" class="cls-3" d="M32.663,329.51v3.985H25.491Z" transform="translate(-24.445 -328.93)"/>
    </g>
    <path id="Tracé_12" data-name="Tracé 12" class="cls-2" d="M5.894,315.358,0,318.632v1.291H0l8.217-4.565Z" transform="translate(0 -220.593)"/>
    <g id="Groupe_9" data-name="Groupe 9" transform="translate(0 85.33)">
      <path id="Tracé_13" data-name="Tracé 13" class="cls-3" d="M4.849,133.652,0,130.958v2.694Z" transform="translate(0 -129.087)"/>
      <path id="Tracé_14" data-name="Tracé 14" class="cls-3" d="M8.217,89.9,0,85.33v1.291L5.894,89.9Z" transform="translate(0 -85.33)"/>
      <path id="Tracé_15" data-name="Tracé 15" class="cls-3" d="M53.366,85.33l6.028,3.349V85.33Z" transform="translate(-51.177 -85.33)"/>
    </g>
    <path id="Tracé_16" data-name="Tracé 16" class="cls-1" d="M8.217,89.9,0,85.33v1.291L5.894,89.9Z"/>
    <path id="Tracé_17" data-name="Tracé 17" class="cls-2" d="M8.217,89.9,0,85.33v1.291L5.894,89.9Z"/>
    <g id="Groupe_10" data-name="Groupe 10" transform="translate(12.782 85.33)">
      <path id="Tracé_18" data-name="Tracé 18" class="cls-3" d="M421.659,148.5l3.705-2.059V148.5Z" transform="translate(-417.147 -143.939)"/>
      <path id="Tracé_19" data-name="Tracé 19" class="cls-3" d="M311.652,89.316V85.331h7.172Z" transform="translate(-311.652 -85.331)"/>
    </g>
    <path id="Tracé_20" data-name="Tracé 20" class="cls-2" d="M313.976,89.9l5.894-3.274V85.33h0L311.652,89.9Z" transform="translate(-298.87)"/>
  </g>
</svg>
