<?xml version="1.0" encoding="UTF-8" standalone="no"?>
<!DOCTYPE svg PUBLIC "-//W3C//DTD SVG 1.1//EN"
 "http://www.w3.org/Graphics/SVG/1.1/DTD/svg11.dtd">
<!-- Generated by graphviz version 2.40.1 (20161225.0304)
 -->
<!-- Title: dependencies Pages: 1 -->
<svg width="1106pt" height="211pt"
 viewBox="0.00 0.00 1106.00 211.00" xmlns="http://www.w3.org/2000/svg" xmlns:xlink="http://www.w3.org/1999/xlink">
<g id="graph0" class="graph" transform="scale(1 1) rotate(0) translate(4 207)">
<title>dependencies</title>
<polygon fill="#ffffff" stroke="transparent" points="-4,4 -4,-207 1102,-207 1102,4 -4,4"/>
<text text-anchor="start" x="528.0091" y="-42.4" font-family="sans-serif" font-weight="bold" font-size="14.00" fill="#000000">Legend</text>
<polygon fill="#ffffb3" stroke="transparent" points="315,-10 315,-30 335,-30 335,-10 315,-10"/>
<text text-anchor="start" x="338.629" y="-15.4" font-family="sans-serif" font-size="14.00" fill="#000000"> &#160;Declarations</text>
<polygon fill="#8dd3c7" stroke="transparent" points="428,-10 428,-30 448,-30 448,-10 428,-10"/>
<text text-anchor="start" x="451.7251" y="-15.4" font-family="sans-serif" font-size="14.00" fill="#000000"> &#160;Module</text>
<polygon fill="#80b1d3" stroke="transparent" points="514,-10 514,-30 534,-30 534,-10 514,-10"/>
<text text-anchor="start" x="537.7812" y="-15.4" font-family="sans-serif" font-size="14.00" fill="#000000"> &#160;Bootstrap</text>
<polygon fill="#fdb462" stroke="transparent" points="611,-10 611,-30 631,-30 631,-10 611,-10"/>
<text text-anchor="start" x="634.6732" y="-15.4" font-family="sans-serif" font-size="14.00" fill="#000000"> &#160;Providers</text>
<polygon fill="#fb8072" stroke="transparent" points="707,-10 707,-30 727,-30 727,-10 707,-10"/>
<text text-anchor="start" x="730.7258" y="-15.4" font-family="sans-serif" font-size="14.00" fill="#000000"> &#160;Exports</text>
<g id="clust1" class="cluster">
<title>cluster_ProjetModule</title>
<polygon fill="none" stroke="#000000" stroke-dasharray="1,5" points="8,-70 8,-195 1090,-195 1090,-70 8,-70"/>
</g>
<g id="clust2" class="cluster">
<title>cluster_ProjetModule_declarations</title>
<polygon fill="none" stroke="#000000" points="178,-78 178,-130 1082,-130 1082,-78 178,-78"/>
</g>
<g id="clust9" class="cluster">
<title>cluster_ProjetModule_imports</title>
<polygon fill="none" stroke="#000000" points="16,-78 16,-130 170,-130 170,-78 16,-78"/>
</g>
<!-- CreateProjetComponent -->
<g id="node1" class="node">
<title>CreateProjetComponent</title>
<polygon fill="#ffffb3" stroke="#000000" points="1073.8033,-122 922.1967,-122 922.1967,-86 1073.8033,-86 1073.8033,-122"/>
<text text-anchor="middle" x="998" y="-99.8" font-family="Times,serif" font-size="14.00" fill="#000000">CreateProjetComponent</text>
</g>
<!-- ProjetModule -->
<g id="node7" class="node">
<title>ProjetModule</title>
<polygon fill="#8dd3c7" stroke="#000000" points="584.4888,-187 581.4888,-191 560.4888,-191 557.4888,-187 491.5112,-187 491.5112,-151 584.4888,-151 584.4888,-187"/>
<text text-anchor="middle" x="538" y="-164.8" font-family="Times,serif" font-size="14.00" fill="#000000">ProjetModule</text>
</g>
<!-- CreateProjetComponent&#45;&gt;ProjetModule -->
<g id="edge1" class="edge">
<title>CreateProjetComponent&#45;&gt;ProjetModule</title>
<path fill="none" stroke="#000000" d="M998,-122.2921C998,-144.2057 998,-178 998,-178 998,-178 594.6387,-178 594.6387,-178"/>
<polygon fill="#000000" stroke="#000000" points="594.6387,-174.5001 584.6387,-178 594.6387,-181.5001 594.6387,-174.5001"/>
</g>
<!-- DetailsProjetComponent -->
<g id="node2" class="node">
<title>DetailsProjetComponent</title>
<polygon fill="#ffffb3" stroke="#000000" points="904.4242,-122 749.5758,-122 749.5758,-86 904.4242,-86 904.4242,-122"/>
<text text-anchor="middle" x="827" y="-99.8" font-family="Times,serif" font-size="14.00" fill="#000000">DetailsProjetComponent</text>
</g>
<!-- DetailsProjetComponent&#45;&gt;ProjetModule -->
<g id="edge2" class="edge">
<title>DetailsProjetComponent&#45;&gt;ProjetModule</title>
<path fill="none" stroke="#000000" d="M827,-122.1061C827,-141.3391 827,-169 827,-169 827,-169 594.754,-169 594.754,-169"/>
<polygon fill="#000000" stroke="#000000" points="594.7541,-165.5001 584.754,-169 594.754,-172.5001 594.7541,-165.5001"/>
</g>
<!-- EnteteComponent -->
<g id="node3" class="node">
<title>EnteteComponent</title>
<polygon fill="#ffffb3" stroke="#000000" points="731.5954,-122 614.4046,-122 614.4046,-86 731.5954,-86 731.5954,-122"/>
<text text-anchor="middle" x="673" y="-99.8" font-family="Times,serif" font-size="14.00" fill="#000000">EnteteComponent</text>
</g>
<!-- EnteteComponent&#45;&gt;ProjetModule -->
<g id="edge3" class="edge">
<title>EnteteComponent&#45;&gt;ProjetModule</title>
<path fill="none" stroke="#000000" d="M673,-122.027C673,-138.3976 673,-160 673,-160 673,-160 594.8376,-160 594.8376,-160"/>
<polygon fill="#000000" stroke="#000000" points="594.8376,-156.5001 584.8376,-160 594.8375,-163.5001 594.8376,-156.5001"/>
</g>
<!-- FooterComponent -->
<g id="node4" class="node">
<title>FooterComponent</title>
<polygon fill="#ffffb3" stroke="#000000" points="596.8809,-122 479.1191,-122 479.1191,-86 596.8809,-86 596.8809,-122"/>
<text text-anchor="middle" x="538" y="-99.8" font-family="Times,serif" font-size="14.00" fill="#000000">FooterComponent</text>
</g>
<!-- FooterComponent&#45;&gt;ProjetModule -->
<g id="edge4" class="edge">
<title>FooterComponent&#45;&gt;ProjetModule</title>
<path fill="none" stroke="#000000" d="M538,-122.1061C538,-122.1061 538,-140.991 538,-140.991"/>
<polygon fill="#000000" stroke="#000000" points="534.5001,-140.9909 538,-150.991 541.5001,-140.991 534.5001,-140.9909"/>
</g>
<!-- ListeProjetComponent -->
<g id="node5" class="node">
<title>ListeProjetComponent</title>
<polygon fill="#ffffb3" stroke="#000000" points="461.2646,-122 318.7354,-122 318.7354,-86 461.2646,-86 461.2646,-122"/>
<text text-anchor="middle" x="390" y="-99.8" font-family="Times,serif" font-size="14.00" fill="#000000">ListeProjetComponent</text>
</g>
<!-- ListeProjetComponent&#45;&gt;ProjetModule -->
<g id="edge5" class="edge">
<title>ListeProjetComponent&#45;&gt;ProjetModule</title>
<path fill="none" stroke="#000000" d="M390,-122.027C390,-138.3976 390,-160 390,-160 390,-160 481.1719,-160 481.1719,-160"/>
<polygon fill="#000000" stroke="#000000" points="481.1719,-163.5001 491.1719,-160 481.1718,-156.5001 481.1719,-163.5001"/>
</g>
<!-- ProjetComponent -->
<g id="node6" class="node">
<title>ProjetComponent</title>
<polygon fill="#ffffb3" stroke="#000000" points="300.2716,-122 185.7284,-122 185.7284,-86 300.2716,-86 300.2716,-122"/>
<text text-anchor="middle" x="243" y="-99.8" font-family="Times,serif" font-size="14.00" fill="#000000">ProjetComponent</text>
</g>
<!-- ProjetComponent&#45;&gt;ProjetModule -->
<g id="edge6" class="edge">
<title>ProjetComponent&#45;&gt;ProjetModule</title>
<path fill="none" stroke="#000000" d="M243,-122.1061C243,-141.3391 243,-169 243,-169 243,-169 481.2564,-169 481.2564,-169"/>
<polygon fill="#000000" stroke="#000000" points="481.2564,-172.5001 491.2564,-169 481.2563,-165.5001 481.2564,-172.5001"/>
</g>
<!-- ProjetRoutingModule -->
<g id="node8" class="node">
<title>ProjetRoutingModule</title>
<polygon fill="#8dd3c7" stroke="#000000" points="162.1066,-122 159.1066,-126 138.1066,-126 135.1066,-122 23.8934,-122 23.8934,-86 162.1066,-86 162.1066,-122"/>
<text text-anchor="middle" x="93" y="-99.8" font-family="Times,serif" font-size="14.00" fill="#000000">ProjetRoutingModule</text>
</g>
<!-- ProjetRoutingModule&#45;&gt;ProjetModule -->
<g id="edge7" class="edge">
<title>ProjetRoutingModule&#45;&gt;ProjetModule</title>
<path fill="none" stroke="#000000" d="M93,-122.2921C93,-144.2057 93,-178 93,-178 93,-178 481.2183,-178 481.2183,-178"/>
<polygon fill="#000000" stroke="#000000" points="481.2183,-181.5001 491.2183,-178 481.2182,-174.5001 481.2183,-181.5001"/>
</g>
</g>
</svg>
